<svg xmlns="http://www.w3.org/2000/svg" width="64" height="64" viewBox="0 0 64 64">
    <g fill="none" fill-rule="evenodd">
        <g fill="#FFFFFF">
            <path d="M60.25 56.021H6.718l9.791-12.051 6.635 4.7c.769.545 1.83.384 2.401-.364l10.019-13.094 5.454 5.014c.359.329.84.495 1.324.456.485-.038.932-.277 1.234-.66L57.58 22.285l.933 7.674c.116.959.988 1.645 1.948 1.527.959-.116 1.643-.989 1.526-1.948l-1.439-11.847c-.086-.701-.584-1.283-1.264-1.474-.182-.05-.367-.067-.55-.058-.192-.042-.393-.058-.598-.029l-11.589 1.55c-.958.128-1.63 1.009-1.502 1.967.117.879.869 1.518 1.732 1.518.077 0 .156-.005.234-.016l7.834-1.048-12.847 16.272-5.475-5.034c-.363-.334-.848-.502-1.337-.455-.49.043-.939.289-1.237.68L23.791 44.839l-6.595-4.672c-.753-.531-1.788-.391-2.37.325L5.5 51.969V6.75C5.5 5.783 4.716 5 3.75 5S2 5.783 2 6.75v50.79c0 .04.009.077.012.115-.003.039-.012.076-.012.116 0 .967.784 1.75 1.75 1.75h56.5c.966 0 1.75-.783 1.75-1.75s-.784-1.75-1.75-1.75"/>
        </g>
    </g>
</svg>