<svg xmlns="http://www.w3.org/2000/svg" width="64" height="64" viewBox="0 0 64 64">
    <g fill="none" fill-rule="evenodd">
        <g fill="#FFFFFF">
            <path d="M46.556 2c.966 0 1.75.783 1.75 1.75v3.217h8.321c.967 0 1.75.783 1.75 1.75V60.25c0 .967-.783 1.75-1.75 1.75H6.957c-.966 0-1.75-.783-1.75-1.75 0-19.525-.048-49.021-.182-51.236C5.009 8.917 5 8.818 5 8.717c0-.967.784-1.75 1.75-1.75h8.115V3.75c0-.967.784-1.75 1.75-1.75.967 0 1.75.783 1.75 1.75v3.217h26.441V3.75c0-.967.783-1.75 1.75-1.75zm8.321 22.161H8.654c.011 3.267.02 6.787.028 10.318.016 8.213.022 16.424.024 21.3l.001 2.721h46.17V24.161zm-23.188 1.67c.966 0 1.75.785 1.75 1.75v1.593c2.69.547 4.89 2.315 5.716 4.765.309.916-.183 1.909-1.099 2.218-.914.31-1.908-.183-2.217-1.1-.348-1.031-1.254-1.842-2.4-2.262v6.852c3.46.715 6.05 3.493 6.05 6.809 0 3.316-2.59 6.094-6.05 6.809v1.579c0 .967-.784 1.75-1.75 1.75s-1.75-.783-1.75-1.75v-1.582c-2.896-.603-5.247-2.665-5.88-5.347-.222-.94.36-1.883 1.301-2.105.938-.224 1.883.359 2.105 1.3.271 1.149 1.226 2.066 2.474 2.522V42.78c-3.46-.715-6.05-3.494-6.05-6.81 0-3.315 2.59-6.094 6.05-6.81v-1.578c0-.966.784-1.75 1.75-1.75zm1.75 17.442v6.366c1.499-.546 2.55-1.764 2.55-3.183 0-1.42-1.051-2.637-2.55-3.183zm-3.5-10.486c-1.499.546-2.55 1.765-2.55 3.184 0 1.419 1.051 2.637 2.55 3.183zm-15.074-22.32H8.562l.007.439c.019 1.413.036 3.431.051 5.853.007 1.208.014 2.517.02 3.902h46.237V10.467h-6.571v4.666c0 .967-.784 1.75-1.75 1.75-.967 0-1.75-.783-1.75-1.75v-4.666H18.365v4.666c0 .967-.783 1.75-1.75 1.75-.966 0-1.75-.783-1.75-1.75v-4.666z"/>
        </g>
    </g>
</svg>