<svg xmlns="http://www.w3.org/2000/svg" width="64" height="64" viewBox="0 0 64 64">
    <g fill="none" fill-rule="evenodd">
        <g fill="#FFFFFF">
            <path d="M45.417 2c.966 0 1.75.783 1.75 1.75v6.566c0 .967-.784 1.75-1.75 1.75s-1.75-.783-1.75-1.75V5.5H9.5v53h34.167V47.649c0-.967.784-1.75 1.75-1.75s1.75.783 1.75 1.75V60.25c0 .966-.784 1.75-1.75 1.75H7.75C6.784 62 6 61.216 6 60.25V3.75C6 2.783 6.784 2 7.75 2zM25.772 13.828c3.568-2.213 7.806-2.918 11.934-1.996 8.536 1.916 13.948 10.306 12.064 18.703-.48 2.143-1.404 4.11-2.681 5.826L57.714 48.55c.726.833.639 2.096-.194 2.822-.38.33-.848.492-1.314.492-.558 0-1.113-.232-1.509-.686L44.291 39.24c-.473.374-.963.732-1.484 1.056-2.544 1.579-5.431 2.392-8.377 2.392-1.181 0-2.373-.132-3.558-.396-8.535-1.916-13.948-10.306-12.064-18.703.915-4.075 3.387-7.54 6.965-9.761zm8.382 1.108c-2.3 0-4.552.635-6.536 1.865-2.771 1.72-4.688 4.404-5.394 7.553-1.462 6.515 2.761 13.03 9.416 14.522 3.227.724 6.538.173 9.32-1.554 2.773-1.721 4.688-4.403 5.395-7.553 1.462-6.514-2.761-13.03-9.415-14.521-.926-.208-1.86-.312-2.786-.312z"/>
        </g>
    </g>
</svg>
