<svg xmlns="http://www.w3.org/2000/svg" width="64" height="64" viewBox="0 0 64 64">
    <g fill="none" fill-rule="evenodd">
        <g fill="#FFFFFF">
            <path d="M59.669 36.594c.927 0 1.759.568 2.096 1.433.337.863.11 1.845-.573 2.473L44.988 55.408c-.432.398-.979.594-1.523.594-.608 0-1.213-.244-1.656-.726-.842-.915-.783-2.338.132-3.18L53.9 41.094H4.25c-1.243 0-2.25-1.008-2.25-2.25s1.007-2.25 2.25-2.25zm-40.657-28c.915-.84 2.34-.782 3.18.132.841.915.782 2.338-.133 3.18L10.1 22.908h49.65c1.243 0 2.25 1.008 2.25 2.25s-1.007 2.25-2.25 2.25H4.331c-.927 0-1.759-.568-2.096-1.433-.337-.863-.11-1.845.573-2.473z"/>
        </g>
    </g>
</svg>