<svg xmlns="http://www.w3.org/2000/svg" width="64" height="64" viewBox="0 0 64 64">
    <g fill="none" fill-rule="evenodd">
        <g fill="#888E8E">
            <g>
                <g>
                    <path d="M16.63 46.108c1.25 0 2.262 1.012 2.262 2.261v8.37c0 1.248-1.012 2.261-2.261 2.261H8.26C7.013 59 6 57.987 6 56.738V48.37c0-1.249 1.013-2.261 2.26-2.261zm20.055 0c1.249 0 2.26 1.012 2.26 2.261v8.37c0 1.248-1.011 2.261-2.26 2.261h-8.37c-1.248 0-2.26-1.013-2.26-2.262V48.37c0-1.249 1.012-2.261 2.26-2.261zm20.054 0c1.25 0 2.261 1.012 2.261 2.261v8.37C59 57.986 57.988 59 56.74 59h-8.37c-1.249 0-2.262-1.013-2.262-2.262V48.37c0-1.249 1.013-2.261 2.261-2.261zM16.631 26.054c1.248 0 2.261 1.012 2.261 2.26v8.371c0 1.249-1.013 2.26-2.26 2.26h-8.37c-1.25 0-2.262-1.011-2.262-2.26v-8.37c0-1.249 1.012-2.26 2.261-2.26zm20.054 0c1.249 0 2.26 1.012 2.26 2.26v8.371c0 1.249-1.011 2.26-2.26 2.26h-8.37c-1.248 0-2.26-1.011-2.26-2.26v-8.37c0-1.249 1.012-2.26 2.26-2.26zm20.054 0c1.25 0 2.261 1.012 2.261 2.26v8.371c0 1.249-1.012 2.26-2.26 2.26h-8.37c-1.249 0-2.262-1.011-2.262-2.26v-8.37c0-1.249 1.013-2.26 2.261-2.26zM16.631 6c1.248 0 2.261 1.012 2.261 2.26v8.37c0 1.25-1.013 2.262-2.26 2.262h-8.37C7.011 18.892 6 17.88 6 16.63V8.26C6 7.01 7.012 6 8.261 6zm20.054 0c1.249 0 2.26 1.012 2.26 2.26v8.37c0 1.25-1.011 2.262-2.26 2.262h-8.37c-1.248 0-2.26-1.012-2.26-2.261V8.26c0-1.25 1.012-2.261 2.26-2.261zM56.74 6C57.99 6 59 7.012 59 8.26v8.37c0 1.25-1.012 2.262-2.26 2.262h-8.37c-1.249 0-2.262-1.012-2.262-2.261V8.26C46.108 7.01 47.121 6 48.37 6z" transform="translate(-499 -325) translate(82 250) translate(0 75) translate(417)"/>
                </g>
            </g>
        </g>
    </g>
</svg>
