<svg xmlns="http://www.w3.org/2000/svg" width="64" height="64" viewBox="0 0 64 64">
    <g fill="none" fill-rule="evenodd">
        <g fill="#888E8E">
            <g>
                <g>
                    <g>
                        <path d="M46.326 50.021l4.386 5.455c-4.734 3.808-10.401 6.06-16.386 6.514l-.53-6.98c4.57-.347 8.902-2.072 12.53-4.989zM2.829 24.991l6.815 1.601C9.216 28.41 9 30.244 9 32.044c0 11.38 8.459 21.188 19.675 22.815l-1.005 6.928C13.036 59.664 2 46.877 2 32.044c0-2.338.279-4.71.829-7.053zM51.96 9.636c6.38 5.665 10.038 13.833 10.038 22.408 0 6.867-2.27 13.342-6.564 18.728l-5.473-4.365C53.258 42.275 55 37.308 55 32.044c0-6.576-2.8-12.836-7.686-17.173l4.648-5.235zM32 2c5.013 0 9.983 1.27 14.371 3.674l-3.364 6.14C39.648 9.974 35.841 9 32 9c-8.79 0-16.682 4.905-20.597 12.801l-6.27-3.109C10.235 8.396 20.532 2 32 2z" transform="translate(-271 -325) translate(82 250) translate(0 75) translate(189)"/>
                    </g>
                </g>
            </g>
        </g>
    </g>
</svg>