
<svg xmlns="http://www.w3.org/2000/svg" width="64" height="64" viewBox="0 0 64 64">
    <g fill="none" fill-rule="evenodd">
        <g fill="#888E8E">
            <g>
                <g>
                    <g>
                        <path d="M32 2c16.542 0 30 13.458 30 30S48.542 62 32 62 2 48.542 2 32 15.458 2 32 2zm0 3.471C17.372 5.471 5.471 17.371 5.471 32c0 14.628 11.9 26.529 26.529 26.529 14.628 0 26.529-11.9 26.529-26.529 0-14.628-11.9-26.529-26.529-26.529zm-.636 38.522c.98 0 1.776.795 1.776 1.776 0 .982-.795 1.777-1.776 1.777-.982 0-1.777-.795-1.777-1.777 0-.98.795-1.776 1.777-1.776zm2.513-26.99c3.193.758 5.805 3.126 6.655 6.034 1.302 4.445-1.243 8.97-5.918 10.529-.939.312-1.545 1.031-1.545 1.834v3.917c0 .959-.776 1.735-1.735 1.735-.96 0-1.736-.776-1.736-1.735V35.4c0-2.286 1.575-4.347 3.92-5.128 2.498-.832 4.565-3.249 3.683-6.26-.507-1.732-2.127-3.157-4.125-3.632-2.672-.634-5.352.218-6.834 2.174-.578.765-1.666.913-2.43.336-.764-.58-.915-1.668-.336-2.432 2.31-3.051 6.392-4.407 10.401-3.455z" transform="translate(-1525 -325) translate(82 250) translate(0 75) translate(1443)"/>
                    </g>
                </g>
            </g>
        </g>
    </g>
</svg>