
<svg xmlns="http://www.w3.org/2000/svg" width="64" height="64" viewBox="0 0 64 64">
    <g fill="none" fill-rule="evenodd">
        <g fill="#888E8E">
            <g>
                <g>
                    <g>
                        <path d="M50.361 55.082h-37.78c-3.93 0-7.13-3.255-7.13-7.255V17.334c1.02.466 2.25.727 3.682.778 7.1.252 41.665.03 43.123.02 1.699 0 4.548.57 4.548 4.392v9.742H52.51c-2.7 0-4.889 2.19-4.889 4.89 0 2.7 2.188 4.89 4.889 4.89h4.295v6.478c0 3.617-2.89 6.558-6.443 6.558M9.328 9.452h34.465c2.138 0 3.877 1.608 3.877 3.586v1.67c-9.912.051-32.915.149-38.414-.045-1.544-.056-2.657-.428-3.218-1.08-.474-.551-.481-1.219-.47-1.42.423-1.557 1.948-2.712 3.76-2.712m50.928 22.816v-9.743c0-5.79-4.31-7.844-8.011-7.844l-1.123.007v-1.65c0-3.88-3.288-7.037-7.329-7.037H9.328C5.287 6 2 9.157 2 13.038v34.789c0 5.903 4.747 10.706 10.582 10.706h37.78c5.455 0 9.894-4.49 9.894-10.01v-6.479c.964-.006 1.744-.788 1.744-1.752V34.02c0-.965-.78-1.747-1.744-1.753" transform="translate(-385 -325) translate(82 250) translate(0 75) translate(303)"/>
                    </g>
                </g>
            </g>
        </g>
    </g>
</svg>