<svg xmlns="http://www.w3.org/2000/svg" width="141" height="45" viewBox="0 0 141 45">
    <path fill="#10C0C6" fill-rule="evenodd" d="M123.259 14.612l.382.006c3.178.09 6.119 1.287 8.401 3.27l.503-2.106.026-.08c.077-.18.251-.301.448-.301h4.826l.088.008c.228.042.4.246.4.491v25.146l-.008.09c-.04.232-.24.409-.48.409h-5.314l-.088-.008c-.228-.043-.4-.246-.4-.491v-2.049l-.278.234c-2.334 1.92-5.31 3.042-8.506 3.042l-.303-.004c-7.642-.168-13.678-6.7-13.269-14.583l.02-.32c.505-6.71 5.806-12.15 12.397-12.705.388-.033.773-.049 1.155-.049zM24.21 2.546l.393.004c6.924.142 12.947 4.03 16.214 9.761l.046.094c.207.507-.164 1.092-.724 1.092H24.21l-.253.003c-4.893.147-8.747 4.52-8.189 9.672l.033.265c.541 3.87 3.654 6.96 7.476 7.376l.267.025c4.354.34 8.075-2.679 8.96-6.784H30.13l-.096-.007c-.347-.048-.615-.352-.615-.72v-3.825l.007-.098c.047-.355.344-.629.704-.629h11.294v.006l.001.006h3.059l.094.006c.338.047.598.343.598.702v13.664l-.006.096c-.046.345-.336.612-.686.612h-3.672l-.094-.007c-.338-.047-.598-.343-.598-.701v-3.28l-.118.344c-2.405 6.833-7.987 11.592-15.792 11.592l-.338-.003C13.426 41.628 5.011 32.92 5 22.202v-.047l.006-.464c.007-.31.022-.623.043-.936l.027-.348C5.9 10.925 13.448 3.296 22.767 2.6c.485-.036.966-.054 1.444-.054zM55.73 13.798l.31.003c7.427.169 13.396 6.375 13.396 14.005l-.003.317c-.165 7.59-6.237 13.692-13.703 13.692l-.345-.005c-4.82-.121-9.022-2.786-11.37-6.73h.47l.147-.006c.968-.077 1.733-.906 1.733-1.915V19.495l-.008-.175c-.04-.459-.24-.871-.541-1.18 2.496-2.674 6.013-4.342 9.914-4.342zm0 7.813l-.222.004c-3.245.12-5.84 2.846-5.84 6.191 0 3.422 2.714 6.196 6.062 6.196l.222-.004c3.245-.12 5.84-2.846 5.84-6.192l-.004-.227c-.117-3.316-2.785-5.968-6.058-5.968zm30.128-6.878l.468.008c1.09.038 2.175.207 3.206.508l.084.031c.296.136.44.494.304.808l-2.406 5.57-.049.091c-.148.229-.432.333-.692.238l-.23-.08c-4.06-1.337-7.985 1.225-8.744 5.136l-.01.065-.003.066v13.759l-.007.1c-.047.29-.294.512-.591.512h-6.222l-.097-.008c-.284-.048-.501-.3-.501-.604v-24.92l.007-.1c.047-.29.294-.512.591-.512h4.741l.093.007c.212.034.393.183.469.394l.577 1.606.038.085c.187.35.66.428.946.134 1.964-2.016 4.996-2.894 8.028-2.894zm21.689-12.46l.086.007c.254.042.448.267.448.539v38.18l-.007.088c-.042.26-.262.458-.527.458h-6.529l-.086-.007c-.254-.043-.448-.268-.448-.54V2.819l.007-.088c.042-.26.262-.457.527-.457h6.529zm-9.323 12.954l.093.008c.24.045.422.26.422.518v25.265l-.008.095c-.044.246-.254.432-.507.432h-6.626l-.093-.009c-.24-.044-.422-.26-.422-.518V15.753l.008-.094c.044-.246.254-.432.507-.432h6.626zm25.307 6.119c1.681 0 3.257.649 4.477 1.845l.211.217c1.234 1.26 1.884 2.953 1.953 4.722l.006.313c0 1.776-.582 3.443-1.747 4.798l-.212.236c-1.177 1.26-2.724 1.98-4.393 2.056l-.295.007c-1.78 0-3.443-.728-4.748-2.063-1.177-1.317-1.878-2.96-1.952-4.722l-.007-.312c0-1.776.635-3.498 1.756-4.808l.203-.227c1.233-1.26 2.784-1.98 4.452-2.056l.296-.006zm-28.62-18.8l.205.005c2.173.11 3.902 1.945 3.902 4.193l-.005.21c-.106 2.22-1.902 3.988-4.102 3.988l-.205-.005c-2.173-.11-3.902-1.945-3.902-4.193 0-2.319 1.839-4.198 4.107-4.198z"/>
</svg>