<svg xmlns="http://www.w3.org/2000/svg" xmlns:xlink="http://www.w3.org/1999/xlink" width="24" height="24" viewBox="0 0 24 24">
    <defs>
        <path id="a" d="M13.212 9.681a2.751 2.751 0 0 0-3.51 3.979l3.51-3.979zm.968.793l-3.572 4.048a2.751 2.751 0 0 0 3.572-4.048zm-5.223 4.03a3.83 3.83 0 0 1-.807-2.354A3.856 3.856 0 0 1 12 8.3c.714 0 1.384.196 1.958.536l1.386-1.57A12.193 12.193 0 0 0 12 6.802c-4.169 0-7.887 2.07-9.702 5.347 1.07 1.93 2.798 3.441 4.891 4.358l1.768-2.003zm.915.852l-1.426 1.617c1.12.342 2.317.524 3.554.524 4.169 0 7.887-2.07 9.702-5.347-1.102-1.989-2.904-3.533-5.083-4.44l-1.703 1.93c.582.674.934 1.552.934 2.51A3.856 3.856 0 0 1 12 16a3.826 3.826 0 0 1-2.128-.644zm6.201-8.917l2.958-3.353a.625.625 0 0 1 .938.828l-2.637 2.988c2.571 1.1 4.602 2.969 5.668 5.248-1.73 3.699-6 6.32-11 6.32-1.51 0-2.953-.24-4.28-.675L4.97 20.914a.625.625 0 1 1-.938-.828l2.446-2.771C3.996 16.205 2.039 14.372 1 12.15c1.73-3.699 6-6.32 11-6.32 1.432 0 2.804.216 4.073.61z"/>
    </defs>
    <g fill="none" fill-rule="evenodd">
        <mask id="b" fill="#fff">
            <use xlink:href="#a"/>
        </mask>
        <g fill="#2D2D2D" mask="url(#b)">
            <path d="M1 0h24v24H1z"/>
        </g>
    </g>
</svg>
