<svg xmlns="http://www.w3.org/2000/svg" width="24" height="24" viewBox="0 0 20.2 11.39">
  <g id="Layer_2" data-name="Layer 2">
    <g id="Extras">
      <g id="visibility">
        <path d="M9.93,11.39C6.48,11.39,3.19,9.61.15,6.1A.62.62,0,0,1,0,5.7a.63.63,0,0,1,.13-.39C.3,5.1,4.31.12,10.05,0c3.53,0,6.89,1.7,10,5.29a.58.58,0,0,1,.15.39.71.71,0,0,1-.13.4c-.17.21-4.18,5.19-9.92,5.31ZM1.39,5.69c2.76,3.05,5.71,4.57,8.73,4.5,4.33-.09,7.68-3.38,8.69-4.49-2.76-3.05-5.7-4.55-8.73-4.5C5.75,1.29,2.4,4.58,1.39,5.69Z"/><path d="M10.1,9.06a3.3,3.3,0,1,1,3.3-3.3A3.3,3.3,0,0,1,10.1,9.06Zm0-5.6a2.3,2.3,0,1,0,2.3,2.3A2.3,2.3,0,0,0,10.1,3.46Z"/>
      </g>
    </g>
  </g>
</svg>
